<?xml version="1.0" standalone="no"?>
<!DOCTYPE svg PUBLIC "-//W3C//DTD SVG 20010904//EN"
 "http://www.w3.org/TR/2001/REC-SVG-20010904/DTD/svg10.dtd">
<svg version="1.0" xmlns="http://www.w3.org/2000/svg"
 width="500.000000pt" height="500.000000pt" viewBox="0 0 500.000000 500.000000"
 preserveAspectRatio="xMidYMid meet">

<g transform="translate(0.000000,500.000000) scale(0.100000,-0.100000)"
fill="#000000" stroke="none">
<path d="M2545 4781 c-11 -5 -15 -10 -10 -10 6 -1 4 -5 -4 -10 -11 -7 -9 -10
8 -16 13 -4 25 -4 28 -1 4 3 -1 6 -11 6 -9 0 -14 5 -11 10 4 7 13 6 27 -1 16
-9 23 -8 29 2 7 12 9 12 9 0 0 -8 6 -11 16 -7 8 3 12 2 9 -4 -3 -5 14 -11 37
-13 31 -3 25 -4 -22 -5 -36 0 -76 -3 -90 -7 -14 -3 -34 -7 -45 -9 -78 -12
-251 -52 -314 -73 -191 -62 -431 -212 -569 -355 -25 -26 -48 -46 -51 -43 -4 2
-13 -1 -21 -7 -12 -8 -12 -9 3 -4 23 7 22 -7 -3 -29 -24 -22 -109 -145 -141
-205 -13 -25 -31 -55 -41 -68 -9 -13 -36 -72 -59 -130 -43 -111 -56 -137 -44
-89 5 17 3 27 -4 27 -6 0 -11 -6 -11 -13 0 -13 -5 -15 -50 -19 -27 -3 -14 -13
17 -13 15 0 28 -7 30 -15 3 -11 2 -12 -4 -3 -10 14 -56 6 -47 -8 10 -17 -16
-9 -36 11 -18 18 -18 22 -5 54 37 87 4 148 -80 150 -40 1 -50 -3 -75 -32 -32
-37 -38 -36 -105 13 -16 12 -37 24 -46 27 -14 5 -171 106 -367 235 -160 106
-158 104 -187 97 -30 -7 -111 -108 -122 -152 -5 -22 2 -33 47 -75 29 -27 65
-56 79 -65 39 -25 158 -111 226 -163 33 -25 78 -56 100 -69 22 -13 64 -43 93
-66 29 -24 61 -46 72 -49 24 -8 26 -21 5 -29 -16 -6 -21 -69 -9 -101 20 -50
113 -51 168 -1 l26 25 55 -34 c30 -19 58 -35 63 -35 5 0 17 -9 26 -19 10 -11
33 -27 52 -36 30 -14 34 -20 33 -53 0 -20 -3 -31 -6 -24 -2 6 -9 12 -14 12 -6
0 -8 -4 -5 -9 4 -5 -2 -7 -13 -4 -17 4 -18 -2 -18 -66 0 -39 4 -71 8 -71 5 0
6 -6 3 -14 -6 -14 19 -157 37 -216 90 -290 323 -605 565 -764 110 -71 311
-172 410 -205 33 -11 101 -27 150 -36 167 -30 189 -38 187 -63 -6 -55 -60 -90
-92 -60 -11 11 -12 10 -6 -2 5 -8 10 -28 12 -45 2 -24 -4 -16 -30 35 -17 36
-33 67 -35 70 -1 2 -49 10 -105 17 -109 13 -1633 17 -1692 4 -30 -7 -30 -8
-21 -61 4 -22 44 -98 56 -105 6 -4 7 -12 3 -18 -4 -7 1 -5 11 2 17 14 17 15
-3 23 -28 10 -27 16 3 11 14 -3 32 -20 44 -42 l21 -37 -20 -44 c-15 -33 -22
-41 -29 -30 -5 8 -6 18 -3 24 3 5 1 6 -6 2 -6 -4 -9 -12 -6 -17 4 -5 -1 -17
-11 -26 -11 -12 -13 -18 -5 -21 9 -3 8 -7 -2 -16 -20 -15 -33 -71 -15 -60 7 4
5 -2 -5 -13 -10 -11 -20 -38 -21 -59 -2 -22 -5 -39 -6 -39 -1 0 -3 -7 -5 -15
-2 -8 -6 -24 -9 -35 -12 -43 -55 -215 -77 -304 -12 -52 -32 -121 -45 -153 -51
-123 -42 -128 233 -128 l212 0 13 47 c19 66 40 67 69 4 12 -28 27 -51 33 -52
65 -5 522 5 524 12 5 13 30 11 34 -2 3 -9 119 -11 433 -10 378 2 432 4 445 18
13 14 13 15 0 8 -8 -5 -4 4 9 18 33 36 44 34 60 -10 l13 -36 285 6 c157 3 288
8 291 11 2 3 0 12 -7 19 -18 23 28 27 289 27 l238 0 7 66 7 66 25 -44 c52 -92
40 -88 269 -88 l203 0 14 28 c8 15 25 58 37 97 l23 69 31 -89 c28 -80 34 -90
61 -97 17 -4 148 -8 293 -10 259 -3 263 -3 257 17 -12 34 -27 661 -21 853 4
140 3 184 -7 187 -6 2 -99 5 -204 7 l-193 4 0 -60 0 -61 -21 40 c-44 83 -18
78 -381 77 l-323 0 -32 -38 c-20 -23 -33 -31 -33 -22 0 9 -8 26 -18 38 -18 22
-24 22 -253 25 -128 1 -292 3 -364 4 l-130 1 25 20 c14 11 63 31 110 45 319
93 525 197 688 346 42 38 76 60 105 67 48 13 70 6 307 -92 74 -31 165 -63 202
-72 64 -16 68 -16 105 3 52 27 72 81 50 134 -16 40 -45 56 -257 149 -213 94
-241 110 -234 133 3 12 13 28 22 35 9 6 13 12 9 12 -4 0 9 28 27 63 61 110
113 286 141 472 18 122 11 111 68 113 141 5 152 7 152 21 0 10 23 20 65 31 87
22 106 36 135 97 30 63 31 71 3 127 -29 61 -70 81 -192 95 -122 14 -138 22
-48 24 18 1 22 6 22 34 0 18 1 36 3 41 1 4 -11 8 -28 10 -56 6 -51 22 7 22 31
0 60 5 63 10 3 6 19 10 34 10 40 0 111 83 111 130 0 32 -36 95 -67 119 -24 18
-25 20 -8 21 37 0 -20 30 -67 35 -170 15 -218 16 -218 6 0 -6 5 -11 12 -11 6
0 9 -3 5 -6 -8 -8 -189 16 -203 27 -6 5 -18 7 -27 3 -10 -3 -20 2 -27 15 -6
12 -15 21 -20 21 -5 0 -20 11 -34 25 -14 14 -22 25 -19 25 4 0 2 5 -5 12 -8 8
-15 8 -29 -3 -16 -13 -17 -12 -4 4 15 19 2 24 -16 6 -9 -9 -6 -22 10 -53 12
-23 25 -42 28 -44 19 -9 42 -31 33 -32 -24 0 -98 86 -88 102 4 6 3 8 -3 5 -6
-4 -30 19 -54 51 -24 31 -50 62 -58 69 -14 10 -13 11 3 9 11 -2 22 -8 24 -14
2 -7 9 -9 15 -5 7 3 9 3 5 -2 -10 -10 11 -37 23 -29 5 3 6 -2 3 -10 -3 -9 -1
-16 5 -16 6 0 11 -7 11 -16 0 -14 3 -14 15 -4 13 11 15 10 9 -6 -5 -16 -3 -16
14 3 11 12 23 19 28 15 5 -4 -2 5 -15 20 -13 15 -28 25 -33 22 -5 -3 -8 0 -6
8 4 16 -58 85 -83 93 -10 4 -18 9 -16 13 3 11 -75 82 -91 82 -7 0 -11 4 -8 9
3 4 -6 13 -20 20 -20 9 -25 9 -21 -1 2 -7 9 -12 14 -11 5 1 10 -5 10 -13 0 -7
-3 -12 -6 -9 -3 3 -10 -3 -16 -14 -10 -19 -13 -18 -72 22 -33 24 -79 51 -102
61 -46 21 -50 30 -21 46 15 8 25 7 43 -4 21 -14 23 -14 23 4 0 15 -5 19 -21
14 -11 -4 -17 -3 -13 1 10 11 -29 38 -42 30 -6 -3 -10 2 -10 12 -1 17 -1 17
-15 -1 -7 -10 -18 -16 -22 -13 -5 3 -15 1 -23 -5 -12 -8 -12 -9 3 -4 11 4 17
0 18 -12 0 -10 3 -12 6 -5 3 10 8 9 19 -2 9 -8 12 -20 8 -26 -3 -6 -9 -7 -13
-3 -8 12 -111 58 -188 85 -35 12 -63 24 -63 26 0 3 7 2 16 -1 10 -4 26 1 38
11 12 10 15 11 9 3 -18 -20 -16 -25 12 -28 14 -1 25 3 25 9 0 5 -4 8 -8 5 -4
-2 -9 5 -9 17 -2 20 -1 19 15 -4 30 -46 50 -59 87 -59 31 0 36 3 31 18 -6 15
-5 15 8 -1 8 -10 17 -14 20 -9 8 13 -17 33 -43 35 -12 1 -21 4 -21 8 0 11
-120 51 -136 45 -8 -3 -14 -1 -14 5 0 6 -6 9 -12 6 -7 -2 -27 2 -43 9 -17 7
-58 16 -90 19 -33 4 -69 9 -80 12 -41 10 -301 12 -320 4z m513 -76 c-3 -3 -9
2 -12 12 -6 14 -5 15 5 6 7 -7 10 -15 7 -18z m-133 -3 c-3 -3 -11 0 -18 7 -9
10 -8 11 6 5 10 -3 15 -9 12 -12z m103 -12 c12 0 22 -4 22 -9 0 -13 -88 10
-94 25 -3 9 2 9 22 -2 15 -8 37 -14 50 -14z m181 -20 c6 0 11 -8 10 -17 0 -11
-3 -13 -6 -5 -2 6 -11 12 -18 12 -7 0 -15 10 -18 23 -5 20 -5 20 7 5 7 -10 18
-18 25 -18z m51 -20 c0 -5 -4 -10 -10 -10 -5 0 -10 5 -10 10 0 6 5 10 10 10 6
0 10 -4 10 -10z m106 -42 c4 -6 2 -8 -4 -4 -5 3 -12 1 -14 -6 -4 -12 -28 -3
-28 10 0 12 39 12 46 0z m-455 -29 c87 -13 143 -32 284 -97 161 -73 332 -192
411 -285 66 -78 64 -74 38 -74 -13 0 -21 3 -19 7 6 9 -15 8 -30 -2 -5 -3 -75
-7 -155 -7 -80 -1 -149 -6 -154 -11 -6 -6 -21 -10 -35 -10 -13 0 -21 -3 -18
-6 4 -4 -7 -14 -24 -23 -49 -25 -65 -61 -50 -110 6 -23 26 -57 42 -76 17 -19
28 -39 24 -45 -3 -5 -27 -9 -53 -8 -64 2 -113 -10 -140 -35 -12 -12 -30 -22
-40 -23 -15 -2 -14 -1 2 12 11 8 16 14 12 14 -5 0 -3 7 4 15 12 14 7 20 -15
15 -5 -1 -41 -4 -79 -6 -38 -2 -72 -8 -75 -13 -3 -5 -33 -11 -66 -15 -208 -19
-207 -19 -216 -5 -7 11 -12 12 -29 2 -23 -15 -47 -17 -52 -4 -1 5 -19 10 -38
12 -19 2 -43 10 -53 18 -10 8 -26 16 -36 18 -15 2 -18 -2 -14 -17 3 -11 0 -20
-6 -20 -6 0 -11 15 -11 34 0 34 -20 62 -34 48 -4 -4 -6 -1 -4 6 1 8 -6 19 -17
25 -11 7 -22 15 -25 18 -3 3 -23 9 -45 13 -22 4 -49 9 -60 12 -16 4 -17 3 -5
-5 11 -8 2 -11 -38 -11 -29 0 -51 3 -49 8 3 4 -29 6 -71 4 -43 -2 -97 -3 -122
-3 -60 1 -127 -18 -135 -36 -5 -14 -8 -13 -26 3 -17 15 -23 16 -40 6 -11 -7
-28 -11 -37 -8 -13 4 -23 -4 -36 -29 -10 -19 -22 -33 -25 -30 -4 2 -17 -13
-30 -33 -13 -20 -37 -56 -53 -79 -37 -55 -36 -84 3 -51 7 7 -5 -7 -27 -32 -23
-25 -44 -52 -47 -60 -12 -34 -6 29 8 85 23 85 83 208 160 325 81 122 249 296
350 362 217 140 328 180 620 222 46 7 303 -3 376 -15z m704 -130 c11 -16 1
-19 -13 -3 -7 8 -8 14 -3 14 5 0 13 -5 16 -11z m-26 -22 c11 3 12 2 4 -4 -8
-6 -9 -14 -3 -23 6 -8 10 -11 10 -7 0 5 5 5 11 1 8 -4 7 -9 -2 -15 -9 -5 -21
3 -36 24 -24 33 -31 49 -12 30 6 -6 19 -9 28 -6z m219 -182 c-3 -3 -9 2 -12
12 -6 14 -5 15 5 6 7 -7 10 -15 7 -18z m67 -84 c3 -5 2 -12 -3 -15 -5 -3 -9 1
-9 9 0 17 3 19 12 6z m-3475 -105 c0 -18 -26 -45 -43 -46 -5 0 -7 15 -5 33 2
19 8 31 16 30 6 -2 11 0 11 5 -1 4 -1 12 0 17 2 16 21 -18 21 -39z m90 -53 c0
-23 -11 -38 -32 -46 -20 -7 -33 30 -16 50 16 19 48 16 48 -4z m2814 -65 c-3
-4 1 -8 8 -8 18 0 50 -38 46 -55 -2 -8 -18 4 -40 29 -21 25 -31 43 -23 43 8 0
12 -4 9 -9z m-2724 -23 c0 -7 -6 -15 -14 -18 -17 -7 -54 18 -43 29 4 4 7 2 7
-4 0 -7 7 -12 15 -12 8 0 15 7 15 16 0 8 5 12 10 9 6 -3 10 -12 10 -20z m1357
18 c-4 -3 -22 -7 -39 -9 -26 -2 -29 -1 -13 6 24 10 61 13 52 3z m73 -19 c0 -2
-9 0 -20 6 -11 6 -20 13 -20 16 0 2 9 0 20 -6 11 -6 20 -13 20 -16z m-348 -26
c-7 -7 -12 -8 -12 -2 0 14 12 26 19 19 2 -3 -1 -11 -7 -17z m-995 -25 c-3 -10
-5 -4 -5 12 0 17 2 24 5 18 2 -7 2 -21 0 -30z m1643 -9 c0 -14 -3 -14 -15 -4
-8 7 -15 14 -15 16 0 2 7 4 15 4 8 0 15 -7 15 -16z m-216 -75 c67 -25 148 -96
169 -147 51 -128 13 -264 -85 -301 -15 -6 -30 -6 -33 -2 -2 5 4 11 15 14 30 8
54 104 40 157 -16 59 -71 115 -138 141 -79 29 -204 23 -278 -14 -128 -65 -208
-159 -244 -288 -25 -92 -25 -172 0 -272 50 -197 173 -330 387 -419 75 -31 84
-32 213 -33 114 0 147 4 210 24 125 39 236 103 355 206 132 114 246 174 362
192 17 3 39 1 48 -4 14 -8 7 -14 -37 -36 -102 -50 -218 -200 -218 -281 0 -33
-5 -43 -23 -52 -12 -6 -78 -40 -147 -77 -225 -119 -346 -152 -523 -145 -230
10 -364 72 -551 255 -163 160 -179 186 -232 372 -32 114 -37 247 -10 296 9 17
16 36 16 44 0 26 74 137 134 199 70 73 181 146 264 173 83 26 234 26 306 -2z
m267 -65 c20 -34 23 -44 10 -44 -5 0 -14 15 -22 33 -7 17 -18 36 -23 40 -7 5
-6 7 4 5 8 -3 22 -18 31 -34z m1548 5 c13 -39 14 -49 2 -49 -5 0 -12 14 -16
30 -4 17 -11 30 -16 30 -6 0 -7 5 -4 10 11 18 23 11 34 -21z m-49 17 c0 -2 -9
-6 -20 -9 -11 -3 -18 -1 -14 4 5 9 34 13 34 5z m-883 -78 c-3 -8 -6 -5 -6 6
-1 11 2 17 5 13 3 -3 4 -12 1 -19z m-587 -13 c0 -8 -2 -15 -4 -15 -2 0 -6 7
-10 15 -3 8 -1 15 4 15 6 0 10 -7 10 -15z m-1123 -11 c-3 -3 -12 -4 -19 -1 -8
3 -5 6 6 6 11 1 17 -2 13 -5z m628 -64 c3 -5 -7 -16 -22 -24 -80 -41 -143
-172 -143 -294 0 -207 194 -403 407 -411 150 -6 292 55 463 199 101 86 200
152 273 183 65 27 83 30 183 31 106 1 112 0 176 -33 48 -24 75 -45 94 -75 35
-53 43 -120 18 -167 l-18 -34 -7 33 c-30 144 -294 178 -489 64 -25 -15 -88
-61 -140 -102 -132 -106 -179 -136 -274 -180 -92 -43 -168 -60 -263 -60 -87 0
-142 14 -249 66 -131 62 -209 146 -274 294 -20 45 -24 72 -25 150 0 83 4 102
28 154 49 107 97 153 202 198 48 20 52 21 60 8z m1640 -49 c-3 -6 -11 -11 -17
-11 -6 0 -6 6 2 15 14 17 26 13 15 -4z m-154 -895 c92 -33 106 -42 172 -104
l57 -55 -47 -51 -48 -51 -35 38 c-50 53 -152 87 -263 87 -130 0 -215 -27 -457
-145 -267 -130 -332 -149 -481 -140 -131 7 -183 21 -279 72 -42 22 -83 39 -93
37 -20 -3 -121 69 -159 114 -14 17 -27 30 -30 29 -2 -1 0 2 3 6 4 5 28 -2 55
-16 143 -72 327 -113 467 -104 168 11 275 50 588 217 126 67 213 89 359 89
108 1 134 -2 191 -23z m-75 -247 c-62 -15 -140 -65 -216 -138 -51 -49 -70 -75
-70 -94 0 -22 -8 -28 -67 -49 -62 -21 -85 -23 -248 -23 -185 0 -324 11 -309
24 5 4 41 16 79 26 39 10 76 23 84 29 8 6 17 10 20 10 3 -1 16 2 29 7 13 5 26
9 29 9 3 0 92 43 197 95 105 52 213 98 241 103 69 13 286 14 231 1z m-2209
-591 c19 -39 9 -35 -15 6 -11 19 -17 37 -14 41 4 3 8 0 11 -7 2 -7 10 -25 18
-40z m413 2 c18 -43 9 -45 -18 -4 -16 25 -18 34 -8 34 7 0 19 -14 26 -30z
m-493 -131 c6 -30 12 -54 13 -54 2 0 33 -145 84 -400 40 -195 63 -283 78 -302
8 -10 -6 -13 -65 -13 -50 0 -79 4 -84 13 -4 6 -15 50 -23 97 l-16 85 -94 3
-95 3 -24 -101 -23 -100 -32 0 c-17 0 -49 -3 -70 -7 -37 -6 -39 -5 -33 18 9
34 62 280 92 429 14 69 30 134 35 145 9 21 28 99 37 153 3 20 -1 41 -11 57 -9
13 -16 27 -16 30 0 3 53 3 118 1 l117 -4 12 -53z m110 39 c-3 -8 -6 -5 -6 6
-1 11 2 17 5 13 3 -3 4 -12 1 -19z m219 12 l53 0 94 -192 c52 -106 102 -211
111 -232 9 -22 19 -36 22 -33 3 3 5 81 3 174 -1 92 -3 194 -3 226 l-1 58 78 2
79 3 -9 -266 c-4 -146 -8 -331 -8 -413 l0 -147 -52 0 c-29 0 -56 -1 -60 -2
-11 -4 -54 78 -103 192 -23 52 -65 145 -95 205 l-54 110 0 -251 c-1 -138 -3
-253 -5 -255 -2 -2 -35 -3 -73 -1 l-68 3 3 374 c2 322 1 378 -13 404 -23 45
-20 54 16 47 17 -3 55 -6 85 -6z m714 4 c0 0 -7 -15 -15 -31 -13 -27 -15 -87
-13 -412 l3 -381 -72 0 -73 0 0 384 c0 368 -1 384 -20 409 -11 14 -20 27 -20
30 0 4 210 5 210 1z m270 -55 c14 -30 52 -121 85 -204 60 -149 60 -149 67
-108 3 22 32 99 62 171 31 71 56 134 56 139 0 6 9 22 21 37 19 24 27 26 90 26
l69 0 -3 -415 -2 -415 -71 0 -70 0 3 241 c1 133 1 240 -1 238 -2 -2 -42 -84
-89 -182 -47 -98 -87 -175 -90 -170 -2 4 -10 26 -17 48 -17 55 -121 275 -131
275 -4 0 -8 -75 -8 -167 -1 -93 -4 -194 -7 -225 l-7 -58 -58 0 c-33 0 -62 1
-66 3 -5 1 -7 157 -6 347 2 315 -2 417 -21 460 -5 13 7 15 81 14 l87 -1 26
-54z m948 -15 l3 -70 -121 4 -121 4 3 -103 3 -104 83 -3 82 -3 0 -38 c0 -21 3
-53 6 -70 l7 -31 -97 0 -96 0 0 -105 0 -105 119 0 120 0 6 -47 c4 -27 9 -56
12 -65 4 -17 -10 -18 -190 -18 l-195 0 -7 38 c-4 20 -5 192 -4 382 4 316 2
348 -13 373 -10 14 -18 29 -18 31 0 3 93 5 208 3 l207 -2 3 -71z m230 60 c11
-3 13 -41 10 -178 l-3 -173 19 31 c10 17 52 88 92 158 109 191 94 177 192 178
45 0 82 -2 82 -5 0 -2 -31 -51 -68 -107 -38 -57 -87 -138 -110 -181 l-42 -79
26 -61 c46 -109 163 -344 179 -357 12 -10 16 -9 21 6 3 11 10 28 15 39 4 11
16 58 24 105 9 47 19 92 22 100 15 35 93 413 100 483 l6 58 101 -3 101 -3 13
-39 c7 -22 26 -103 41 -180 68 -327 118 -547 136 -588 6 -16 0 -18 -67 -18
l-75 0 -17 68 c-9 37 -20 81 -24 97 l-8 30 -84 1 c-46 1 -89 0 -96 -3 -14 -5
-31 -64 -42 -142 l-7 -55 -140 -4 c-126 -3 -142 -2 -157 15 -17 19 -111 203
-148 291 -21 48 -40 68 -40 40 0 -6 -11 -26 -25 -44 -24 -31 -25 -39 -25 -163
l0 -131 -76 0 c-58 0 -73 3 -67 13 4 6 6 179 4 382 -2 299 -5 374 -17 392 -25
39 -18 43 64 37 42 -3 83 -8 90 -10z m1177 -404 l0 -415 -79 0 -79 0 5 381 c5
308 3 385 -8 405 -24 44 -20 47 74 46 l87 -2 0 -415z m-3161 -435 c3 -8 1 -15
-4 -15 -6 0 -10 7 -10 15 0 8 2 15 4 15 2 0 6 -7 10 -15z m993 -17 c-3 -7 -5
-2 -5 12 0 14 2 19 5 13 2 -7 2 -19 0 -25z"/>
<path d="M2575 4351 c-42 -26 -92 -81 -104 -114 -18 -48 -13 -118 14 -174 95
-206 415 -110 393 117 -7 74 -49 137 -111 166 -65 30 -148 32 -192 5z m62
-183 c-3 -8 -6 -5 -6 6 -1 11 2 17 5 13 3 -3 4 -12 1 -19z"/>
<path d="M2345 3850 c3 -5 8 -10 11 -10 2 0 4 5 4 10 0 6 -5 10 -11 10 -5 0
-7 -4 -4 -10z"/>
<path d="M906 1499 c-13 -43 -56 -254 -56 -275 0 -2 27 -4 61 -4 l61 0 -7 43
c-10 68 -46 241 -50 246 -3 2 -6 -2 -9 -10z"/>
<path d="M4171 1464 c-6 -32 -18 -86 -26 -119 -7 -33 -16 -75 -19 -92 l-5 -33
59 0 c51 0 60 3 60 18 0 14 -45 246 -53 276 -2 5 -9 -17 -16 -50z"/>
<path d="M2490 4770 c0 -5 7 -7 15 -4 8 4 15 8 15 10 0 2 -7 4 -15 4 -8 0 -15
-4 -15 -10z"/>
<path d="M2428 4733 c7 -3 16 -2 19 1 4 3 -2 6 -13 5 -11 0 -14 -3 -6 -6z"/>
<path d="M3433 4566 c0 -29 18 -34 37 -11 15 18 -1 20 -19 3 -8 -7 -11 -8 -8
-3 3 6 2 17 -2 24 -6 9 -8 4 -8 -13z"/>
<path d="M3467 4544 c-10 -11 -8 -24 4 -24 5 0 7 6 3 13 -4 6 2 3 13 -8 11
-11 16 -21 12 -23 -11 -5 -12 -32 -1 -32 4 0 14 6 21 13 11 10 13 8 8 -11 -4
-18 -3 -21 8 -12 16 14 -2 60 -25 60 -13 0 -13 1 0 10 9 6 10 10 3 10 -6 0
-18 2 -25 5 -8 3 -17 2 -21 -1z"/>
<path d="M3906 4519 c-22 -17 -26 -28 -26 -70 0 -42 5 -54 28 -76 15 -14 37
-29 50 -34 33 -13 222 -10 317 4 136 21 191 84 132 153 -21 24 -33 28 -113 35
-49 4 -150 8 -225 8 -123 1 -139 -1 -163 -20z"/>
<path d="M4525 4040 c10 -11 20 -20 23 -20 3 0 -3 9 -13 20 -10 11 -20 20 -23
20 -3 0 3 -9 13 -20z"/>
<path d="M4210 2498 c36 -17 106 -51 155 -74 50 -24 79 -35 65 -24 -14 11 -80
44 -147 75 -130 58 -182 75 -73 23z"/>
<path d="M1018 2451 c-32 -5 -53 -14 -67 -31 -25 -30 -26 -44 -5 -64 12 -13
36 -16 105 -15 49 1 87 5 84 9 -3 5 0 10 6 12 10 3 38 70 39 91 0 8 -94 7
-162 -2z"/>
<path d="M4460 2376 c0 -2 8 -10 18 -17 15 -13 16 -12 3 4 -13 16 -21 21 -21
13z"/>
<path d="M4178 776 c-3 -14 -1 -26 4 -26 14 0 22 30 11 41 -7 7 -12 2 -15 -15z"/>
<path d="M3630 715 c0 -8 5 -15 10 -15 6 0 10 7 10 15 0 8 -4 15 -10 15 -5 0
-10 -7 -10 -15z"/>
</g>
</svg>
